<svg width="64" height="64" viewBox="0 0 64 64" fill="none" xmlns="http://www.w3.org/2000/svg">
<path fill-rule="evenodd" clip-rule="evenodd" d="M28 0C12.536 0 0 12.536 0 28V36C0 51.464 12.536 64 28 64H36C51.464 64 64 51.464 64 36V28C64 12.536 51.464 0 36 0H28ZM35.472 11.07C33.9362 8.38477 30.0638 8.38477 28.528 11.07L11.2335 41.3045C10.0446 43.3829 10.9358 46.0331 13.1389 46.971L30.4332 54.3331C31.4343 54.7592 32.5657 54.7592 33.5667 54.3331L50.8611 46.971C53.0642 46.0331 53.9554 43.3829 52.7665 41.3045L35.472 11.07Z" fill="#F8F8F8"/>
</svg>
